<svg
width="20"
height="20"
viewBox="0 0 25 25"
fill="none"
xmlns="http://www.w3.org/2000/svg"
>
<path
    d="M20.301 15.9608C22.3212 18.0288 23.4837 20.7414 23.6034 23.6496H22.7592C22.5031 17.997 17.9281 13.4615 12.3173 13.4615C6.70656 13.4615 2.13156 17.997 1.87548 23.6496H1.03126C1.15096 20.7414 2.31348 18.0288 4.33373 15.9608C5.56576 14.6998 7.0299 13.7683 8.62525 13.2048L9.53795 12.8824L8.74683 12.3247C7.08896 11.1559 5.99757 9.198 5.99757 6.98076C5.99757 3.39666 8.844 0.5 12.3173 0.5C15.7907 0.5 18.6371 3.39666 18.6371 6.98076C18.6371 9.198 17.5457 11.1559 15.8879 12.3247L15.0968 12.8825L16.0094 13.2048C17.6048 13.7683 19.0689 14.6998 20.301 15.9608ZM6.84075 6.98076C6.84075 10.0547 9.28618 12.5748 12.3173 12.5748C15.3485 12.5748 17.7939 10.0547 17.7939 6.98076C17.7939 3.90677 15.3485 1.38669 12.3173 1.38669C9.28618 1.38669 6.84075 3.90677 6.84075 6.98076Z"
    fill="black"
    stroke="black"
></path>
</svg>